<?xml version="1.0" encoding="UTF-8" standalone="no"?>
<!DOCTYPE svg PUBLIC "-//W3C//DTD SVG 1.1//EN" "http://www.w3.org/Graphics/SVG/1.1/DTD/svg11.dtd">
<svg width="100%" height="100%" viewBox="0 0 394 394" version="1.1" xmlns="http://www.w3.org/2000/svg" xmlns:xlink="http://www.w3.org/1999/xlink" xml:space="preserve" xmlns:serif="http://www.serif.com/" style="fill-rule:evenodd;clip-rule:evenodd;stroke-linejoin:round;stroke-miterlimit:2;">
    <g transform="matrix(1,0,0,1,-128.498,-117.498)">
        <g transform="matrix(1,0,0,1,-78.1789,-14.7885)">
            <circle cx="403.179" cy="328.789" r="196.502" style="fill:rgb(47,0,255);"/>
        </g>
        <g transform="matrix(1,0,0,1,-78.1789,-14.7885)">
            <path d="M265.198,468.643C265.219,409.92 265.247,327.832 265.247,325.239C265.247,249.112 327.052,187.307 403.179,187.307C479.305,187.307 541.111,249.112 541.111,325.239C541.111,401.365 479.305,463.17 403.179,463.17C393.617,463.17 384.281,462.195 375.265,460.339L375.265,523.319C366.037,522.005 357.016,520.048 348.246,517.496L348.246,337.772C347.329,333.741 346.844,329.546 346.844,325.239C346.844,294.147 372.087,268.904 403.179,268.904C434.271,268.904 459.513,294.147 459.513,325.239C459.513,356.33 434.271,381.573 403.179,381.573C393.025,381.573 383.495,378.881 375.265,374.172L375.265,431.243C384.178,433.587 393.534,434.836 403.179,434.836C463.667,434.836 512.776,385.727 512.776,325.239C512.776,264.75 463.667,215.641 403.179,215.641C342.69,215.641 293.581,264.75 293.581,325.239C293.581,327.068 293.361,434.156 293.242,491.642C283.193,484.842 273.806,477.136 265.198,468.643Z" style="fill:white;"/>
        </g>
    </g>
</svg>
